<?xml version="1.0" encoding="utf-8"?>
<!-- Generator: Adobe Illustrator 21.1.0, SVG Export Plug-In . SVG Version: 6.00 Build 0)  -->
<svg version="1.1" xmlns="http://www.w3.org/2000/svg" xmlns:xlink="http://www.w3.org/1999/xlink" x="0px" y="0px"
	 viewBox="0 0 500 300" style="enable-background:new 0 0 500 300;" xml:space="preserve">
<style type="text/css">
	.st0{display:none;}
	.st1{fill:#B00707;}
	.st2{fill:#FFFFFF;}
</style>
<g id="Layer_1" class="st0">
	
		<image style="display:inline;overflow:visible;" width="596" height="162" xlink:href="444713.png"  transform="matrix(1 0 0 1 -48 69)">
	</image>
</g>
<g id="Layer_2">
	<polygon class="st1" points="-48,231 -48,69 -21.3,69 10.7,159.3 10.7,69 34,69 34,220 10,222.7 -22,143.3 -22.7,224 	"/>
	<polygon class="st1" points="147.3,69 218.7,69 218.7,92 196,92 196.7,210 172,210 170.7,92.7 147.3,92.7 	"/>
	<polygon class="st1" points="245.3,69 304.7,69 304.7,91.3 270.7,91.3 270.7,132.7 300.7,132.7 300.7,153.3 270,153.3 269.3,210 
		245.3,210 	"/>
	<polygon class="st1" points="329.3,69 355.3,69 355.3,187.3 390.7,191.3 390.7,214 329.3,210 	"/>
	<polygon class="st1" points="415.3,69 439.3,69 439.3,218 415.3,214 	"/>
	<polygon class="st1" points="464.7,69 490,143.5 462,218 480.7,222 500,180.7 520,228 545.3,231 516.7,143.5 548,69 521.3,69 
		505,108.7 490,69 	"/>
	<path class="st1" d="M95.3,218L95.3,218c-16.9,0-30.7-13.8-30.7-30.7V99.7C64.7,82.8,78.5,69,95.3,69h0c16.9,0,30.7,13.8,30.7,30.7
		v87.7C126,204.2,112.2,218,95.3,218z"/>
	<path class="st2" d="M96,190L96,190c-6.6,0-12-5.4-12-12v-63.3c0-6.6,5.4-12,12-12h0c6.6,0,12,5.4,12,12V178
		C108,184.6,102.6,190,96,190z"/>
</g>
</svg>
