<?xml version="1.0" encoding="utf-8"?>
<!-- Generator: Adobe Illustrator 21.1.0, SVG Export Plug-In . SVG Version: 6.00 Build 0)  -->
<svg version="1.1" id="Capa_1" xmlns="http://www.w3.org/2000/svg" xmlns:xlink="http://www.w3.org/1999/xlink" x="0px" y="0px"
	 viewBox="0 0 512 512" style="enable-background:new 0 0 512 512;" xml:space="preserve">
<path d="M264.5,16.1l121.8,113.3l121.8,113.3c4.9,4.8,5.3,12.5,0.7,17.6c-2.5,2.6-5.8,3.9-9.1,3.9v0.2H438v222.5
	c0,6.9-5.6,12.5-12.5,12.5h-97c-6.9,0-12.3-5.6-12.3-12.5V315.8H195.9v171.1c0,6.9-5.6,12.5-12.5,12.5h-97
	c-6.9,0-12.3-5.6-12.3-12.5V264.4H12.3c-6.9,0-12.3-5.6-12.3-12.5c0-3.9,1.8-7.4,4.6-9.7l121.3-112.8L247.6,15.9
	C252.4,11.5,259.8,11.5,264.5,16.1L264.5,16.1z M369.4,147.6L256.1,42L142.7,147.6L44,239.4h42.4c6.9,0,12.5,5.6,12.5,12.5v222.5
	h72.2V303.5c0-6.9,5.5-12.5,12.3-12.5h145.2c6.9,0,12.5,5.6,12.5,12.5v170.9h72.2V251.9c0-6.9,5.5-12.5,12.3-12.5h42.6L369.4,147.6z
	"/>
</svg>
